<svg width="96" height="96" xmlns="http://www.w3.org/2000/svg" xmlns:xlink="http://www.w3.org/1999/xlink" xml:space="preserve" overflow="hidden"><g transform="translate(-592 -160)"><path d="M668 227.1 647.8 206.91 665.6 200.5C666.514 200.186 667 199.19 666.686 198.276 666.511 197.766 666.11 197.365 665.6 197.19L614.31 180.09C614.126 180.029 613.934 179.999 613.74 180L613.74 180C612.779 180.021 612.017 180.816 612.038 181.777 612.042 181.955 612.073 182.131 612.13 182.3L629.19 233.64C629.512 234.551 630.512 235.029 631.423 234.707 631.922 234.531 632.314 234.139 632.49 233.64L638.91 215.82 659.09 236Z" fill="#3E3E3E"/></g></svg>