<svg width="96" height="96" xmlns="http://www.w3.org/2000/svg" xmlns:xlink="http://www.w3.org/1999/xlink" xml:space="preserve" overflow="hidden"><g transform="translate(-592 -425)"><path d="M661.887 517C661.335 517 660.793 516.848 660.322 516.56L654.231 512.835C651.847 511.382 648.914 511.15 646.331 512.21L645.457 512.57C639.578 514.979 632.835 513.746 628.19 509.411 625.883 507.253 622.592 506.505 619.579 507.454 615.189 508.829 610.401 507.536 607.3 504.138L604.72 501.3C603.606 500.074 603.696 498.177 604.922 497.062 605.01 496.982 605.103 496.907 605.2 496.838 605.231 496.816 610.376 492.922 613.822 482.584 615.729 476.866 615.789 472.439 615.86 467.312 615.799 461.626 616.343 455.95 617.485 450.38 620.241 437.427 629.966 430 644.165 430 664.142 430 673.083 451.1 673.083 472 673.009 486.76 670.159 501.375 664.683 515.082 664.362 515.912 663.69 516.557 662.847 516.842 662.538 516.946 662.213 516.999 661.887 517ZM649.658 505.557C652.374 505.555 655.039 506.302 657.358 507.716L660.342 509.54C664.751 497.513 667.032 484.81 667.083 472 667.083 458.629 662.256 436 644.165 436 636.188 436 626.103 438.711 623.355 451.624 622.292 456.811 621.789 462.097 621.855 467.391 621.781 472.783 621.711 477.877 619.51 484.479 617.807 490.001 614.953 495.1 611.137 499.439L611.737 500.103C613.259 501.773 615.613 502.409 617.769 501.731 622.849 500.134 628.395 501.395 632.286 505.031 635.214 507.765 639.466 508.542 643.171 507.021L644.046 506.661C645.827 505.93 647.733 505.555 649.658 505.557Z" fill="#3E3E3E"/><path d="M638.006 455C638.006 457.209 636.215 459 634.006 459 631.797 459 630.006 457.209 630.006 455 630.006 452.791 631.797 451 634.006 451 636.215 451 638.006 452.791 638.006 455Z" fill="#3E3E3E"/><path d="M656.006 455C656.006 457.209 654.215 459 652.006 459 649.797 459 648.006 457.209 648.006 455 648.006 452.791 649.797 451 652.006 451 654.215 451 656.006 452.791 656.006 455Z" fill="#3E3E3E"/><path d="M647.806 469C647.806 472.314 645.657 475 643.006 475 640.355 475 638.206 472.314 638.206 469 638.206 465.686 640.355 463 643.006 463 645.657 463 647.806 465.686 647.806 469Z" fill="#3E3E3E"/></g></svg>