<svg width="96" height="96" xmlns="http://www.w3.org/2000/svg" xmlns:xlink="http://www.w3.org/1999/xlink" xml:space="preserve" overflow="hidden"><g transform="translate(-505 -22)"><path d="M553 68 538 69.1 538 51C538 42.7 544.7 36 553 36 561.3 36 568 42.7 568 51L568 57 574 57 574 51C574 39.4 564.6 30 553 30 541.4 30 532 39.4 532 51L532 69.5 525 70 525 108 553 110 581 108 581 70 553 68ZM555 94.7 555 100 551 100 551 94.7C548.7 93.9 547 91.7 547 89 547 85.7 549.7 83 553 83 556.3 83 559 85.7 559 89 559 91.6 557.3 93.8 555 94.7Z"/></g></svg>