<svg width="96" height="96" xmlns="http://www.w3.org/2000/svg" xmlns:xlink="http://www.w3.org/1999/xlink" xml:space="preserve" overflow="hidden"><g transform="translate(-823 -17)"><path d="M873 86.2 873 91.5 869 91.5 869 86.2C866.7 85.4 865 83.2 865 80.5 865 77.2 867.7 74.5 871 74.5 874.3 74.5 877 77.2 877 80.5 877 83.1 875.3 85.3 873 86.2ZM856 49.5C856 41.2 862.7 34.5 871 34.5 879.3 34.5 886 41.2 886 49.5L886 60.6 871 59.5 856 60.6 856 49.5ZM892 61 892 49.5C892 37.9 882.6 28.5 871 28.5 859.4 28.5 850 37.9 850 49.5L850 61 843 61.5 843 99.5 871 101.5 899 99.5 899 61.5 892 61Z"/></g></svg>